<svg width="558" height="59" viewBox="0 0 558 59" fill="none" xmlns="http://www.w3.org/2000/svg">
<path d="M25.44 36.732H11.816L8.592 45H0.532L15.82 4.752H21.748L36.62 45H28.456L25.44 36.732ZM23.308 30.492L18.42 16.244H18.316L14 30.492H23.308ZM46.0206 0.903997V45H38.7406V0.903997H46.0206ZM58.462 0.903997V45H51.182V0.903997H58.462ZM86.5067 5.792V38.344H97.3227V45H78.8627V5.792H86.5067ZM101.553 22.484C104.049 19.9187 107.273 18.636 111.225 18.636C115.177 18.636 118.401 19.9187 120.897 22.484C123.393 25.0147 124.641 28.2733 124.641 32.26C124.641 36.2467 123.393 39.5053 120.897 42.036C118.435 44.5667 115.211 45.832 111.225 45.832C107.238 45.832 103.997 44.5667 101.501 42.036C99.0392 39.5053 97.8086 36.2467 97.8086 32.26C97.8086 28.2733 99.0566 25.0147 101.553 22.484ZM115.593 27.268C114.483 25.812 113.027 25.084 111.225 25.084C109.422 25.084 107.966 25.812 106.857 27.268C105.747 28.724 105.193 30.388 105.193 32.26C105.193 34.0973 105.747 35.744 106.857 37.2C108.001 38.656 109.457 39.384 111.225 39.384C112.993 39.384 114.431 38.656 115.541 37.2C116.685 35.744 117.257 34.0973 117.257 32.26C117.257 30.388 116.702 28.724 115.593 27.268ZM152.089 19.468V43.44C152.089 53.5627 147.964 58.624 139.713 58.624C136.385 58.624 133.438 57.6707 130.873 55.764C128.342 53.8573 126.99 51.2747 126.817 48.016H134.513C134.686 49.368 135.224 50.4427 136.125 51.24C137.026 52.072 138.17 52.488 139.557 52.488C140.77 52.488 141.758 52.2453 142.521 51.76C143.284 51.3093 143.821 50.5987 144.133 49.628C144.445 48.692 144.636 47.8427 144.705 47.08C144.774 46.352 144.809 45.364 144.809 44.116V42.452H144.705C143.942 43.492 142.92 44.324 141.637 44.948C140.389 45.5373 139.089 45.832 137.737 45.832C134.166 45.832 131.358 44.5147 129.313 41.88C127.268 39.2453 126.245 36.0907 126.245 32.416C126.245 28.672 127.32 25.448 129.469 22.744C131.618 20.0053 134.496 18.636 138.101 18.636C139.384 18.636 140.614 18.9307 141.793 19.52C143.006 20.1093 143.977 20.9067 144.705 21.912H144.809V19.468H152.089ZM135.293 37.2C136.437 38.656 137.893 39.384 139.661 39.384C141.429 39.384 142.868 38.656 143.977 37.2C145.121 35.744 145.693 34.0973 145.693 32.26C145.693 30.4227 145.121 28.776 143.977 27.32C142.868 25.8293 141.429 25.084 139.661 25.084C137.893 25.084 136.437 25.8293 135.293 27.32C134.184 28.776 133.629 30.4227 133.629 32.26C133.629 34.0973 134.184 35.744 135.293 37.2ZM164.908 19.468V45H157.628V19.468H164.908ZM158.2 5.74C159.067 4.87333 160.089 4.44 161.268 4.44C162.447 4.44 163.452 4.87333 164.284 5.74C165.151 6.572 165.584 7.57733 165.584 8.756C165.584 9.96933 165.168 10.992 164.336 11.824C163.504 12.656 162.481 13.072 161.268 13.072C160.055 13.072 159.032 12.656 158.2 11.824C157.368 10.992 156.952 9.96933 156.952 8.756C156.952 7.57733 157.368 6.572 158.2 5.74ZM186.64 21.288L183.52 25.5C182.272 24.3213 180.99 23.732 179.672 23.732C179.048 23.732 178.494 23.9573 178.008 24.408C177.523 24.824 177.28 25.3267 177.28 25.916C177.28 26.2627 177.367 26.592 177.54 26.904C177.714 27.1813 177.991 27.4413 178.372 27.684C178.788 27.892 179.17 28.0827 179.516 28.256C179.863 28.3947 180.348 28.5853 180.972 28.828C181.631 29.0707 182.151 29.2787 182.532 29.452C184.127 30.1453 185.392 31.0467 186.328 32.156C187.299 33.2307 187.784 34.7733 187.784 36.784C187.784 39.5227 186.814 41.724 184.872 43.388C182.966 45.0173 180.626 45.832 177.852 45.832C174.212 45.832 171.214 44.4107 168.856 41.568L172.184 37.252C173.952 39.228 175.755 40.216 177.592 40.216C178.424 40.216 179.118 39.9733 179.672 39.488C180.227 38.968 180.504 38.292 180.504 37.46C180.504 37.044 180.418 36.68 180.244 36.368C180.106 36.0213 179.828 35.7093 179.412 35.432C178.996 35.1547 178.632 34.9467 178.32 34.808C178.043 34.6693 177.558 34.4613 176.864 34.184C176.171 33.9067 175.686 33.716 175.408 33.612C173.814 32.9187 172.566 32.0867 171.664 31.116C170.763 30.1453 170.312 28.7413 170.312 26.904C170.312 24.512 171.058 22.536 172.548 20.976C174.074 19.416 176.032 18.636 178.424 18.636C181.891 18.636 184.63 19.52 186.64 21.288ZM199.909 25.604V45H192.629V25.604H190.133V19.468H192.629V10.836H199.909V19.468H204.381V25.604H199.909ZM213.658 19.468V45H206.378V19.468H213.658ZM206.95 5.74C207.817 4.87333 208.839 4.44 210.018 4.44C211.197 4.44 212.202 4.87333 213.034 5.74C213.901 6.572 214.334 7.57733 214.334 8.756C214.334 9.96933 213.918 10.992 213.086 11.824C212.254 12.656 211.231 13.072 210.018 13.072C208.805 13.072 207.782 12.656 206.95 11.824C206.118 10.992 205.702 9.96933 205.702 8.756C205.702 7.57733 206.118 6.572 206.95 5.74ZM236.534 20.248V27.268C234.87 25.604 233.085 24.772 231.178 24.772C229.237 24.772 227.677 25.5347 226.498 27.06C225.32 28.5853 224.73 30.3533 224.73 32.364C224.73 34.444 225.337 36.1947 226.55 37.616C227.798 39.0027 229.428 39.696 231.438 39.696C233.38 39.696 235.078 38.8813 236.534 37.252V44.272C234.662 45.312 232.565 45.832 230.242 45.832C226.533 45.832 223.448 44.5147 220.986 41.88C218.56 39.2453 217.346 36.056 217.346 32.312C217.346 28.464 218.594 25.2227 221.09 22.588C223.621 19.9533 226.793 18.636 230.606 18.636C232.825 18.636 234.801 19.1733 236.534 20.248ZM257.277 21.288L254.157 25.5C252.909 24.3213 251.626 23.732 250.309 23.732C249.685 23.732 249.13 23.9573 248.645 24.408C248.16 24.824 247.917 25.3267 247.917 25.916C247.917 26.2627 248.004 26.592 248.177 26.904C248.35 27.1813 248.628 27.4413 249.009 27.684C249.425 27.892 249.806 28.0827 250.153 28.256C250.5 28.3947 250.985 28.5853 251.609 28.828C252.268 29.0707 252.788 29.2787 253.169 29.452C254.764 30.1453 256.029 31.0467 256.965 32.156C257.936 33.2307 258.421 34.7733 258.421 36.784C258.421 39.5227 257.45 41.724 255.509 43.388C253.602 45.0173 251.262 45.832 248.489 45.832C244.849 45.832 241.85 44.4107 239.493 41.568L242.821 37.252C244.589 39.228 246.392 40.216 248.229 40.216C249.061 40.216 249.754 39.9733 250.309 39.488C250.864 38.968 251.141 38.292 251.141 37.46C251.141 37.044 251.054 36.68 250.881 36.368C250.742 36.0213 250.465 35.7093 250.049 35.432C249.633 35.1547 249.269 34.9467 248.957 34.808C248.68 34.6693 248.194 34.4613 247.501 34.184C246.808 33.9067 246.322 33.716 246.045 33.612C244.45 32.9187 243.202 32.0867 242.301 31.116C241.4 30.1453 240.949 28.7413 240.949 26.904C240.949 24.512 241.694 22.536 243.185 20.976C244.71 19.416 246.669 18.636 249.061 18.636C252.528 18.636 255.266 19.52 257.277 21.288ZM285.265 5.792V45H277.621V5.792H285.265ZM297.896 19.468V21.808H298C299.386 19.6933 301.605 18.636 304.656 18.636C310.549 18.636 313.496 22.224 313.496 29.4V45H306.216V31.48C306.216 30.5093 306.216 29.8507 306.216 29.504C306.216 29.1573 306.146 28.5853 306.008 27.788C305.869 26.956 305.678 26.3667 305.436 26.02C305.193 25.6387 304.794 25.292 304.24 24.98C303.72 24.6333 303.061 24.46 302.264 24.46C301.258 24.46 300.426 24.7027 299.768 25.188C299.144 25.6733 298.71 26.4013 298.468 27.372C298.225 28.308 298.069 29.1053 298 29.764C297.93 30.4227 297.896 31.2893 297.896 32.364V45H290.616V19.468H297.896ZM365.345 40.008C361.705 44.0293 357.077 46.04 351.461 46.04C345.845 46.04 341.2 44.0293 337.525 40.008C333.885 35.952 332.065 31.064 332.065 25.344C332.065 19.728 333.902 14.892 337.577 10.836C341.252 6.78 345.88 4.752 351.461 4.752C357.042 4.752 361.67 6.78 365.345 10.836C369.02 14.892 370.857 19.728 370.857 25.344C370.857 31.064 369.02 35.952 365.345 40.008ZM359.625 16.192C357.441 13.592 354.72 12.292 351.461 12.292C348.202 12.292 345.464 13.592 343.245 16.192C341.061 18.792 339.969 21.7387 339.969 25.032C339.969 28.1867 341.113 31.22 343.401 34.132C345.689 37.044 348.376 38.5 351.461 38.5C354.546 38.5 357.233 37.044 359.521 34.132C361.809 31.22 362.953 28.1867 362.953 25.032C362.953 21.7387 361.844 18.792 359.625 16.192ZM381.685 19.468V21.808H381.789C383.175 19.6933 385.394 18.636 388.445 18.636C394.338 18.636 397.285 22.224 397.285 29.4V45H390.005V31.48C390.005 30.5093 390.005 29.8507 390.005 29.504C390.005 29.1573 389.935 28.5853 389.797 27.788C389.658 26.956 389.467 26.3667 389.225 26.02C388.982 25.6387 388.583 25.292 388.029 24.98C387.509 24.6333 386.85 24.46 386.053 24.46C385.047 24.46 384.215 24.7027 383.557 25.188C382.933 25.6733 382.499 26.4013 382.257 27.372C382.014 28.308 381.858 29.1053 381.789 29.764C381.719 30.4227 381.685 31.2893 381.685 32.364V45H374.405V19.468H381.685ZM425.159 33.404H408.363C408.363 35.276 408.761 36.888 409.559 38.24C410.391 39.592 411.673 40.268 413.407 40.268C415.521 40.268 417.151 39.1067 418.295 36.784L425.003 37.876C424.136 40.4067 422.663 42.3653 420.583 43.752C418.503 45.1387 416.111 45.832 413.407 45.832C409.524 45.832 406.421 44.6013 404.099 42.14C401.811 39.644 400.667 36.42 400.667 32.468C400.667 28.412 401.724 25.1013 403.839 22.536C405.988 19.936 409.056 18.636 413.043 18.636C417.029 18.636 420.045 19.936 422.091 22.536C424.136 25.1013 425.159 28.4293 425.159 32.52V33.404ZM408.571 28.88H418.295C418.087 27.4587 417.549 26.2453 416.683 25.24C415.851 24.2347 414.776 23.732 413.459 23.732C412.072 23.732 410.963 24.2347 410.131 25.24C409.299 26.2107 408.779 27.424 408.571 28.88ZM451.421 30.336V45H443.777V5.792H454.177C463.225 5.792 467.749 9.848 467.749 17.96C467.749 22.0853 466.674 25.188 464.525 27.268C462.375 29.3133 459.273 30.336 455.217 30.336H451.421ZM451.421 12.136V23.992H452.981C455.442 23.992 457.21 23.576 458.285 22.744C459.394 21.912 459.949 20.3 459.949 17.908C459.949 15.5853 459.359 14.0427 458.181 13.28C457.002 12.5173 455.199 12.136 452.773 12.136H451.421ZM478.321 0.903997V45H471.041V0.903997H478.321ZM507.611 19.468V45H500.435V42.66H500.331C498.701 44.7747 496.396 45.832 493.415 45.832C489.844 45.832 486.984 44.4627 484.835 41.724C482.72 38.9853 481.663 35.7787 481.663 32.104C481.663 28.4987 482.72 25.3613 484.835 22.692C486.984 19.988 489.809 18.636 493.311 18.636C496.223 18.636 498.597 19.7107 500.435 21.86V19.468H507.611ZM490.711 37.2C491.855 38.656 493.311 39.384 495.079 39.384C496.847 39.384 498.303 38.656 499.447 37.2C500.591 35.7093 501.163 34.0453 501.163 32.208C501.163 30.3707 500.591 28.724 499.447 27.268C498.303 25.812 496.847 25.084 495.079 25.084C493.311 25.084 491.855 25.812 490.711 27.268C489.601 28.724 489.047 30.3707 489.047 32.208C489.047 34.0453 489.601 35.7093 490.711 37.2ZM530.253 20.248V27.268C528.589 25.604 526.804 24.772 524.897 24.772C522.956 24.772 521.396 25.5347 520.217 27.06C519.038 28.5853 518.449 30.3533 518.449 32.364C518.449 34.444 519.056 36.1947 520.269 37.616C521.517 39.0027 523.146 39.696 525.157 39.696C527.098 39.696 528.797 38.8813 530.253 37.252V44.272C528.381 45.312 526.284 45.832 523.961 45.832C520.252 45.832 517.166 44.5147 514.705 41.88C512.278 39.2453 511.065 36.056 511.065 32.312C511.065 28.464 512.313 25.2227 514.809 22.588C517.34 19.9533 520.512 18.636 524.325 18.636C526.544 18.636 528.52 19.1733 530.253 20.248ZM557.444 33.404H540.648C540.648 35.276 541.047 36.888 541.844 38.24C542.676 39.592 543.959 40.268 545.692 40.268C547.807 40.268 549.436 39.1067 550.58 36.784L557.288 37.876C556.421 40.4067 554.948 42.3653 552.868 43.752C550.788 45.1387 548.396 45.832 545.692 45.832C541.809 45.832 538.707 44.6013 536.384 42.14C534.096 39.644 532.952 36.42 532.952 32.468C532.952 28.412 534.009 25.1013 536.124 22.536C538.273 19.936 541.341 18.636 545.328 18.636C549.315 18.636 552.331 19.936 554.376 22.536C556.421 25.1013 557.444 28.4293 557.444 32.52V33.404ZM540.856 28.88H550.58C550.372 27.4587 549.835 26.2453 548.968 25.24C548.136 24.2347 547.061 23.732 545.744 23.732C544.357 23.732 543.248 24.2347 542.416 25.24C541.584 26.2107 541.064 27.424 540.856 28.88Z" fill="#2C3237"/>
</svg>
