<svg width="460" height="18" viewBox="0 0 460 18" fill="none" xmlns="http://www.w3.org/2000/svg">
<path d="M0.973633 14L5.92188 1.11523H7.75879L13.0322 14H11.0898L9.58691 10.0977H4.19922L2.78418 14H0.973633ZM4.69141 8.70898H9.05957L7.71484 5.14062C7.30469 4.05664 7 3.16602 6.80078 2.46875C6.63672 3.29492 6.40527 4.11523 6.10645 4.92969L4.69141 8.70898ZM20.2832 10.5811L21.8389 10.7832C21.6689 11.8555 21.2324 12.6963 20.5293 13.3057C19.832 13.9092 18.9736 14.2109 17.9541 14.2109C16.6768 14.2109 15.6484 13.7949 14.8691 12.9629C14.0957 12.125 13.709 10.9268 13.709 9.36816C13.709 8.36035 13.876 7.47852 14.21 6.72266C14.5439 5.9668 15.0508 5.40137 15.7305 5.02637C16.416 4.64551 17.1602 4.45508 17.9629 4.45508C18.9766 4.45508 19.8057 4.71289 20.4502 5.22852C21.0947 5.73828 21.5078 6.46484 21.6895 7.4082L20.1514 7.64551C20.0049 7.01855 19.7441 6.54688 19.3691 6.23047C19 5.91406 18.5518 5.75586 18.0244 5.75586C17.2275 5.75586 16.5801 6.04297 16.082 6.61719C15.584 7.18555 15.335 8.08789 15.335 9.32422C15.335 10.5781 15.5752 11.4893 16.0557 12.0576C16.5361 12.626 17.1631 12.9102 17.9365 12.9102C18.5576 12.9102 19.0762 12.7197 19.4922 12.3389C19.9082 11.958 20.1719 11.3721 20.2832 10.5811ZM29.2832 10.5811L30.8389 10.7832C30.6689 11.8555 30.2324 12.6963 29.5293 13.3057C28.832 13.9092 27.9736 14.2109 26.9541 14.2109C25.6768 14.2109 24.6484 13.7949 23.8691 12.9629C23.0957 12.125 22.709 10.9268 22.709 9.36816C22.709 8.36035 22.876 7.47852 23.21 6.72266C23.5439 5.9668 24.0508 5.40137 24.7305 5.02637C25.416 4.64551 26.1602 4.45508 26.9629 4.45508C27.9766 4.45508 28.8057 4.71289 29.4502 5.22852C30.0947 5.73828 30.5078 6.46484 30.6895 7.4082L29.1514 7.64551C29.0049 7.01855 28.7441 6.54688 28.3691 6.23047C28 5.91406 27.5518 5.75586 27.0244 5.75586C26.2275 5.75586 25.5801 6.04297 25.082 6.61719C24.584 7.18555 24.335 8.08789 24.335 9.32422C24.335 10.5781 24.5752 11.4893 25.0557 12.0576C25.5361 12.626 26.1631 12.9102 26.9365 12.9102C27.5576 12.9102 28.0762 12.7197 28.4922 12.3389C28.9082 11.958 29.1719 11.3721 29.2832 10.5811ZM38.582 10.9941L40.2168 11.1963C39.959 12.1514 39.4814 12.8926 38.7842 13.4199C38.0869 13.9473 37.1963 14.2109 36.1123 14.2109C34.7471 14.2109 33.6631 13.792 32.8604 12.9541C32.0635 12.1104 31.665 10.9297 31.665 9.41211C31.665 7.8418 32.0693 6.62305 32.8779 5.75586C33.6865 4.88867 34.7354 4.45508 36.0244 4.45508C37.2725 4.45508 38.292 4.87988 39.083 5.72949C39.874 6.5791 40.2695 7.77441 40.2695 9.31543C40.2695 9.40918 40.2666 9.5498 40.2607 9.7373H33.2998C33.3584 10.7627 33.6484 11.5479 34.1699 12.0928C34.6914 12.6377 35.3418 12.9102 36.1211 12.9102C36.7012 12.9102 37.1963 12.7578 37.6064 12.4531C38.0166 12.1484 38.3418 11.6621 38.582 10.9941ZM33.3877 8.43652H38.5996C38.5293 7.65137 38.3301 7.0625 38.002 6.66992C37.498 6.06055 36.8447 5.75586 36.042 5.75586C35.3154 5.75586 34.7031 5.99902 34.2051 6.48535C33.7129 6.97168 33.4404 7.62207 33.3877 8.43652ZM41.5791 11.2139L43.1436 10.9678C43.2314 11.5947 43.4746 12.0752 43.873 12.4092C44.2773 12.7432 44.8398 12.9102 45.5605 12.9102C46.2871 12.9102 46.8262 12.7637 47.1777 12.4707C47.5293 12.1719 47.7051 11.8232 47.7051 11.4248C47.7051 11.0674 47.5498 10.7861 47.2393 10.5811C47.0225 10.4404 46.4834 10.2617 45.6221 10.0449C44.4619 9.75195 43.6562 9.5 43.2051 9.28906C42.7598 9.07227 42.4199 8.77637 42.1855 8.40137C41.957 8.02051 41.8428 7.60156 41.8428 7.14453C41.8428 6.72852 41.9365 6.34473 42.124 5.99316C42.3174 5.63574 42.5781 5.33984 42.9062 5.10547C43.1523 4.92383 43.4863 4.77148 43.9082 4.64844C44.3359 4.51953 44.793 4.45508 45.2793 4.45508C46.0117 4.45508 46.6533 4.56055 47.2041 4.77148C47.7607 4.98242 48.1709 5.26953 48.4346 5.63281C48.6982 5.99023 48.8799 6.4707 48.9795 7.07422L47.4326 7.28516C47.3623 6.80469 47.1572 6.42969 46.8174 6.16016C46.4834 5.89062 46.0088 5.75586 45.3936 5.75586C44.667 5.75586 44.1484 5.87598 43.8379 6.11621C43.5273 6.35645 43.3721 6.6377 43.3721 6.95996C43.3721 7.16504 43.4365 7.34961 43.5654 7.51367C43.6943 7.68359 43.8965 7.82422 44.1719 7.93555C44.3301 7.99414 44.7959 8.12891 45.5693 8.33984C46.6885 8.63867 47.4678 8.88477 47.9072 9.07812C48.3525 9.26562 48.7012 9.54102 48.9531 9.9043C49.2051 10.2676 49.3311 10.7188 49.3311 11.2578C49.3311 11.7852 49.1758 12.2832 48.8652 12.752C48.5605 13.2148 48.1182 13.5752 47.5381 13.833C46.958 14.085 46.3018 14.2109 45.5693 14.2109C44.3564 14.2109 43.4307 13.959 42.792 13.4551C42.1592 12.9512 41.7549 12.2041 41.5791 11.2139ZM50.5791 11.2139L52.1436 10.9678C52.2314 11.5947 52.4746 12.0752 52.873 12.4092C53.2773 12.7432 53.8398 12.9102 54.5605 12.9102C55.2871 12.9102 55.8262 12.7637 56.1777 12.4707C56.5293 12.1719 56.7051 11.8232 56.7051 11.4248C56.7051 11.0674 56.5498 10.7861 56.2393 10.5811C56.0225 10.4404 55.4834 10.2617 54.6221 10.0449C53.4619 9.75195 52.6562 9.5 52.2051 9.28906C51.7598 9.07227 51.4199 8.77637 51.1855 8.40137C50.957 8.02051 50.8428 7.60156 50.8428 7.14453C50.8428 6.72852 50.9365 6.34473 51.124 5.99316C51.3174 5.63574 51.5781 5.33984 51.9062 5.10547C52.1523 4.92383 52.4863 4.77148 52.9082 4.64844C53.3359 4.51953 53.793 4.45508 54.2793 4.45508C55.0117 4.45508 55.6533 4.56055 56.2041 4.77148C56.7607 4.98242 57.1709 5.26953 57.4346 5.63281C57.6982 5.99023 57.8799 6.4707 57.9795 7.07422L56.4326 7.28516C56.3623 6.80469 56.1572 6.42969 55.8174 6.16016C55.4834 5.89062 55.0088 5.75586 54.3936 5.75586C53.667 5.75586 53.1484 5.87598 52.8379 6.11621C52.5273 6.35645 52.3721 6.6377 52.3721 6.95996C52.3721 7.16504 52.4365 7.34961 52.5654 7.51367C52.6943 7.68359 52.8965 7.82422 53.1719 7.93555C53.3301 7.99414 53.7959 8.12891 54.5693 8.33984C55.6885 8.63867 56.4678 8.88477 56.9072 9.07812C57.3525 9.26562 57.7012 9.54102 57.9531 9.9043C58.2051 10.2676 58.3311 10.7188 58.3311 11.2578C58.3311 11.7852 58.1758 12.2832 57.8652 12.752C57.5605 13.2148 57.1182 13.5752 56.5381 13.833C55.958 14.085 55.3018 14.2109 54.5693 14.2109C53.3564 14.2109 52.4307 13.959 51.792 13.4551C51.1592 12.9512 50.7549 12.2041 50.5791 11.2139ZM71.6113 10.9941L73.2461 11.1963C72.9883 12.1514 72.5107 12.8926 71.8135 13.4199C71.1162 13.9473 70.2256 14.2109 69.1416 14.2109C67.7764 14.2109 66.6924 13.792 65.8896 12.9541C65.0928 12.1104 64.6943 10.9297 64.6943 9.41211C64.6943 7.8418 65.0986 6.62305 65.9072 5.75586C66.7158 4.88867 67.7646 4.45508 69.0537 4.45508C70.3018 4.45508 71.3213 4.87988 72.1123 5.72949C72.9033 6.5791 73.2988 7.77441 73.2988 9.31543C73.2988 9.40918 73.2959 9.5498 73.29 9.7373H66.3291C66.3877 10.7627 66.6777 11.5479 67.1992 12.0928C67.7207 12.6377 68.3711 12.9102 69.1504 12.9102C69.7305 12.9102 70.2256 12.7578 70.6357 12.4531C71.0459 12.1484 71.3711 11.6621 71.6113 10.9941ZM66.417 8.43652H71.6289C71.5586 7.65137 71.3594 7.0625 71.0312 6.66992C70.5273 6.06055 69.874 5.75586 69.0713 5.75586C68.3447 5.75586 67.7324 5.99902 67.2344 6.48535C66.7422 6.97168 66.4697 7.62207 66.417 8.43652ZM77.834 14L74.2832 4.66602H75.9531L77.957 10.2559C78.1738 10.8594 78.373 11.4863 78.5547 12.1367C78.6953 11.6445 78.8916 11.0527 79.1436 10.3613L81.2178 4.66602H82.8438L79.3105 14H77.834ZM90.6309 10.9941L92.2656 11.1963C92.0078 12.1514 91.5303 12.8926 90.833 13.4199C90.1357 13.9473 89.2451 14.2109 88.1611 14.2109C86.7959 14.2109 85.7119 13.792 84.9092 12.9541C84.1123 12.1104 83.7139 10.9297 83.7139 9.41211C83.7139 7.8418 84.1182 6.62305 84.9268 5.75586C85.7354 4.88867 86.7842 4.45508 88.0732 4.45508C89.3213 4.45508 90.3408 4.87988 91.1318 5.72949C91.9229 6.5791 92.3184 7.77441 92.3184 9.31543C92.3184 9.40918 92.3154 9.5498 92.3096 9.7373H85.3486C85.4072 10.7627 85.6973 11.5479 86.2188 12.0928C86.7402 12.6377 87.3906 12.9102 88.1699 12.9102C88.75 12.9102 89.2451 12.7578 89.6553 12.4531C90.0654 12.1484 90.3906 11.6621 90.6309 10.9941ZM85.4365 8.43652H90.6484C90.5781 7.65137 90.3789 7.0625 90.0508 6.66992C89.5469 6.06055 88.8936 5.75586 88.0908 5.75586C87.3643 5.75586 86.752 5.99902 86.2539 6.48535C85.7617 6.97168 85.4893 7.62207 85.4365 8.43652ZM94.2432 14V4.66602H95.667V6.08105C96.0303 5.41895 96.3643 4.98242 96.6689 4.77148C96.9795 4.56055 97.3193 4.45508 97.6885 4.45508C98.2217 4.45508 98.7637 4.625 99.3145 4.96484L98.7695 6.43262C98.3828 6.2041 97.9961 6.08984 97.6094 6.08984C97.2637 6.08984 96.9531 6.19531 96.6777 6.40625C96.4023 6.61133 96.2061 6.89844 96.0889 7.26758C95.9131 7.83008 95.8252 8.44531 95.8252 9.11328V14H94.2432ZM100.185 17.5947L100.009 16.1094C100.354 16.2031 100.656 16.25 100.914 16.25C101.266 16.25 101.547 16.1914 101.758 16.0742C101.969 15.957 102.142 15.793 102.276 15.582C102.376 15.4238 102.537 15.0312 102.76 14.4043C102.789 14.3164 102.836 14.1875 102.9 14.0176L99.3584 4.66602H101.063L103.006 10.0713C103.258 10.7568 103.483 11.4775 103.683 12.2334C103.864 11.5068 104.081 10.7979 104.333 10.1064L106.328 4.66602H107.91L104.359 14.1582C103.979 15.1836 103.683 15.8896 103.472 16.2764C103.19 16.7979 102.868 17.1787 102.505 17.4189C102.142 17.665 101.708 17.7881 101.204 17.7881C100.899 17.7881 100.56 17.7236 100.185 17.5947ZM120.355 12.8486C119.77 13.3467 119.204 13.6982 118.659 13.9033C118.12 14.1084 117.54 14.2109 116.919 14.2109C115.894 14.2109 115.105 13.9619 114.555 13.4639C114.004 12.96 113.729 12.3184 113.729 11.5391C113.729 11.082 113.831 10.666 114.036 10.291C114.247 9.91016 114.52 9.60547 114.854 9.37695C115.193 9.14844 115.574 8.97559 115.996 8.8584C116.307 8.77637 116.775 8.69727 117.402 8.62109C118.68 8.46875 119.62 8.28711 120.224 8.07617C120.229 7.85938 120.232 7.72168 120.232 7.66309C120.232 7.01855 120.083 6.56445 119.784 6.30078C119.38 5.94336 118.779 5.76465 117.982 5.76465C117.238 5.76465 116.688 5.89648 116.33 6.16016C115.979 6.41797 115.718 6.87793 115.548 7.54004L114.001 7.3291C114.142 6.66699 114.373 6.13379 114.695 5.72949C115.018 5.31934 115.483 5.00586 116.093 4.78906C116.702 4.56641 117.408 4.45508 118.211 4.45508C119.008 4.45508 119.655 4.54883 120.153 4.73633C120.651 4.92383 121.018 5.16113 121.252 5.44824C121.486 5.72949 121.65 6.08691 121.744 6.52051C121.797 6.79004 121.823 7.27637 121.823 7.97949V10.0889C121.823 11.5596 121.855 12.4912 121.92 12.8838C121.99 13.2705 122.125 13.6426 122.324 14H120.672C120.508 13.6719 120.402 13.2881 120.355 12.8486ZM120.224 9.31543C119.649 9.5498 118.788 9.74902 117.64 9.91309C116.989 10.0068 116.529 10.1123 116.26 10.2295C115.99 10.3467 115.782 10.5195 115.636 10.748C115.489 10.9707 115.416 11.2197 115.416 11.4951C115.416 11.917 115.574 12.2686 115.891 12.5498C116.213 12.8311 116.682 12.9717 117.297 12.9717C117.906 12.9717 118.448 12.8398 118.923 12.5762C119.397 12.3066 119.746 11.9404 119.969 11.4775C120.139 11.1201 120.224 10.5928 120.224 9.89551V9.31543ZM124.284 17.5771V4.66602H125.726V5.87891C126.065 5.4043 126.449 5.0498 126.877 4.81543C127.305 4.5752 127.823 4.45508 128.433 4.45508C129.229 4.45508 129.933 4.66016 130.542 5.07031C131.151 5.48047 131.611 6.06055 131.922 6.81055C132.232 7.55469 132.388 8.37207 132.388 9.2627C132.388 10.2178 132.215 11.0791 131.869 11.8467C131.529 12.6084 131.031 13.1943 130.375 13.6045C129.725 14.0088 129.039 14.2109 128.318 14.2109C127.791 14.2109 127.316 14.0996 126.895 13.877C126.479 13.6543 126.136 13.373 125.866 13.0332V17.5771H124.284ZM125.717 9.38574C125.717 10.5869 125.96 11.4746 126.446 12.0488C126.933 12.623 127.521 12.9102 128.213 12.9102C128.916 12.9102 129.517 12.6143 130.015 12.0225C130.519 11.4248 130.771 10.502 130.771 9.25391C130.771 8.06445 130.524 7.17383 130.032 6.58203C129.546 5.99023 128.963 5.69434 128.283 5.69434C127.609 5.69434 127.012 6.01074 126.49 6.64355C125.975 7.27051 125.717 8.18457 125.717 9.38574ZM134.304 17.5771V4.66602H135.745V5.87891C136.085 5.4043 136.469 5.0498 136.896 4.81543C137.324 4.5752 137.843 4.45508 138.452 4.45508C139.249 4.45508 139.952 4.66016 140.562 5.07031C141.171 5.48047 141.631 6.06055 141.941 6.81055C142.252 7.55469 142.407 8.37207 142.407 9.2627C142.407 10.2178 142.234 11.0791 141.889 11.8467C141.549 12.6084 141.051 13.1943 140.395 13.6045C139.744 14.0088 139.059 14.2109 138.338 14.2109C137.811 14.2109 137.336 14.0996 136.914 13.877C136.498 13.6543 136.155 13.373 135.886 13.0332V17.5771H134.304ZM135.736 9.38574C135.736 10.5869 135.979 11.4746 136.466 12.0488C136.952 12.623 137.541 12.9102 138.232 12.9102C138.936 12.9102 139.536 12.6143 140.034 12.0225C140.538 11.4248 140.79 10.502 140.79 9.25391C140.79 8.06445 140.544 7.17383 140.052 6.58203C139.565 5.99023 138.982 5.69434 138.303 5.69434C137.629 5.69434 137.031 6.01074 136.51 6.64355C135.994 7.27051 135.736 8.18457 135.736 9.38574ZM149.263 17.5947L149.087 16.1094C149.433 16.2031 149.734 16.25 149.992 16.25C150.344 16.25 150.625 16.1914 150.836 16.0742C151.047 15.957 151.22 15.793 151.354 15.582C151.454 15.4238 151.615 15.0312 151.838 14.4043C151.867 14.3164 151.914 14.1875 151.979 14.0176L148.437 4.66602H150.142L152.084 10.0713C152.336 10.7568 152.562 11.4775 152.761 12.2334C152.942 11.5068 153.159 10.7979 153.411 10.1064L155.406 4.66602H156.988L153.438 14.1582C153.057 15.1836 152.761 15.8896 152.55 16.2764C152.269 16.7979 151.946 17.1787 151.583 17.4189C151.22 17.665 150.786 17.7881 150.282 17.7881C149.978 17.7881 149.638 17.7236 149.263 17.5947ZM157.744 9.33301C157.744 7.60449 158.225 6.32422 159.186 5.49219C159.988 4.80078 160.967 4.45508 162.121 4.45508C163.404 4.45508 164.453 4.87695 165.268 5.7207C166.082 6.55859 166.489 7.71875 166.489 9.20117C166.489 10.4023 166.308 11.3486 165.944 12.04C165.587 12.7256 165.062 13.2588 164.371 13.6396C163.686 14.0205 162.936 14.2109 162.121 14.2109C160.814 14.2109 159.757 13.792 158.948 12.9541C158.146 12.1162 157.744 10.9092 157.744 9.33301ZM159.37 9.33301C159.37 10.5283 159.631 11.4248 160.152 12.0225C160.674 12.6143 161.33 12.9102 162.121 12.9102C162.906 12.9102 163.56 12.6113 164.081 12.0137C164.603 11.416 164.863 10.5049 164.863 9.28027C164.863 8.12598 164.6 7.25293 164.072 6.66113C163.551 6.06348 162.9 5.76465 162.121 5.76465C161.33 5.76465 160.674 6.06055 160.152 6.65234C159.631 7.24414 159.37 8.1377 159.37 9.33301ZM174.47 14V12.6289C173.743 13.6836 172.756 14.2109 171.508 14.2109C170.957 14.2109 170.441 14.1055 169.961 13.8945C169.486 13.6836 169.132 13.4199 168.897 13.1035C168.669 12.7812 168.508 12.3887 168.414 11.9258C168.35 11.6152 168.317 11.123 168.317 10.4492V4.66602H169.899V9.84277C169.899 10.6689 169.932 11.2256 169.996 11.5127C170.096 11.9287 170.307 12.2568 170.629 12.4971C170.951 12.7314 171.35 12.8486 171.824 12.8486C172.299 12.8486 172.744 12.7285 173.16 12.4883C173.576 12.2422 173.869 11.9111 174.039 11.4951C174.215 11.0732 174.303 10.4639 174.303 9.66699V4.66602H175.885V14H174.47ZM183.382 14V4.66602H184.806V5.99316C185.491 4.96777 186.481 4.45508 187.776 4.45508C188.339 4.45508 188.854 4.55762 189.323 4.7627C189.798 4.96191 190.152 5.22559 190.387 5.55371C190.621 5.88184 190.785 6.27148 190.879 6.72266C190.938 7.01562 190.967 7.52832 190.967 8.26074V14H189.385V8.32227C189.385 7.67773 189.323 7.19727 189.2 6.88086C189.077 6.55859 188.857 6.30371 188.541 6.11621C188.23 5.92285 187.864 5.82617 187.442 5.82617C186.769 5.82617 186.186 6.04004 185.693 6.46777C185.207 6.89551 184.964 7.70703 184.964 8.90234V14H183.382ZM199.791 10.9941L201.426 11.1963C201.168 12.1514 200.69 12.8926 199.993 13.4199C199.296 13.9473 198.405 14.2109 197.321 14.2109C195.956 14.2109 194.872 13.792 194.069 12.9541C193.272 12.1104 192.874 10.9297 192.874 9.41211C192.874 7.8418 193.278 6.62305 194.087 5.75586C194.896 4.88867 195.944 4.45508 197.233 4.45508C198.481 4.45508 199.501 4.87988 200.292 5.72949C201.083 6.5791 201.479 7.77441 201.479 9.31543C201.479 9.40918 201.476 9.5498 201.47 9.7373H194.509C194.567 10.7627 194.857 11.5479 195.379 12.0928C195.9 12.6377 196.551 12.9102 197.33 12.9102C197.91 12.9102 198.405 12.7578 198.815 12.4531C199.226 12.1484 199.551 11.6621 199.791 10.9941ZM194.597 8.43652H199.809C199.738 7.65137 199.539 7.0625 199.211 6.66992C198.707 6.06055 198.054 5.75586 197.251 5.75586C196.524 5.75586 195.912 5.99902 195.414 6.48535C194.922 6.97168 194.649 7.62207 194.597 8.43652ZM209.811 10.9941L211.445 11.1963C211.188 12.1514 210.71 12.8926 210.013 13.4199C209.315 13.9473 208.425 14.2109 207.341 14.2109C205.976 14.2109 204.892 13.792 204.089 12.9541C203.292 12.1104 202.894 10.9297 202.894 9.41211C202.894 7.8418 203.298 6.62305 204.106 5.75586C204.915 4.88867 205.964 4.45508 207.253 4.45508C208.501 4.45508 209.521 4.87988 210.312 5.72949C211.103 6.5791 211.498 7.77441 211.498 9.31543C211.498 9.40918 211.495 9.5498 211.489 9.7373H204.528C204.587 10.7627 204.877 11.5479 205.398 12.0928C205.92 12.6377 206.57 12.9102 207.35 12.9102C207.93 12.9102 208.425 12.7578 208.835 12.4531C209.245 12.1484 209.57 11.6621 209.811 10.9941ZM204.616 8.43652H209.828C209.758 7.65137 209.559 7.0625 209.23 6.66992C208.727 6.06055 208.073 5.75586 207.271 5.75586C206.544 5.75586 205.932 5.99902 205.434 6.48535C204.941 6.97168 204.669 7.62207 204.616 8.43652ZM219.496 14V12.8223C218.904 13.748 218.034 14.2109 216.886 14.2109C216.142 14.2109 215.456 14.0059 214.829 13.5957C214.208 13.1855 213.725 12.6143 213.379 11.8818C213.039 11.1436 212.869 10.2969 212.869 9.3418C212.869 8.41016 213.024 7.56641 213.335 6.81055C213.646 6.04883 214.111 5.46582 214.732 5.06152C215.354 4.65723 216.048 4.45508 216.815 4.45508C217.378 4.45508 217.879 4.5752 218.318 4.81543C218.758 5.0498 219.115 5.35742 219.391 5.73828V1.11523H220.964V14H219.496ZM214.495 9.3418C214.495 10.5371 214.747 11.4307 215.251 12.0225C215.755 12.6143 216.35 12.9102 217.035 12.9102C217.727 12.9102 218.312 12.6289 218.793 12.0664C219.279 11.498 219.522 10.6338 219.522 9.47363C219.522 8.19629 219.276 7.25879 218.784 6.66113C218.292 6.06348 217.686 5.76465 216.965 5.76465C216.262 5.76465 215.673 6.05176 215.198 6.62598C214.729 7.2002 214.495 8.10547 214.495 9.3418ZM228.479 2.93457V1.11523H230.061V2.93457H228.479ZM228.479 14V4.66602H230.061V14H228.479ZM232.478 14V4.66602H233.901V5.99316C234.587 4.96777 235.577 4.45508 236.872 4.45508C237.435 4.45508 237.95 4.55762 238.419 4.7627C238.894 4.96191 239.248 5.22559 239.482 5.55371C239.717 5.88184 239.881 6.27148 239.975 6.72266C240.033 7.01562 240.062 7.52832 240.062 8.26074V14H238.48V8.32227C238.48 7.67773 238.419 7.19727 238.296 6.88086C238.173 6.55859 237.953 6.30371 237.637 6.11621C237.326 5.92285 236.96 5.82617 236.538 5.82617C235.864 5.82617 235.281 6.04004 234.789 6.46777C234.303 6.89551 234.06 7.70703 234.06 8.90234V14H232.478ZM246.918 9.33301C246.918 7.60449 247.398 6.32422 248.359 5.49219C249.162 4.80078 250.141 4.45508 251.295 4.45508C252.578 4.45508 253.627 4.87695 254.441 5.7207C255.256 6.55859 255.663 7.71875 255.663 9.20117C255.663 10.4023 255.481 11.3486 255.118 12.04C254.761 12.7256 254.236 13.2588 253.545 13.6396C252.859 14.0205 252.109 14.2109 251.295 14.2109C249.988 14.2109 248.931 13.792 248.122 12.9541C247.319 12.1162 246.918 10.9092 246.918 9.33301ZM248.544 9.33301C248.544 10.5283 248.805 11.4248 249.326 12.0225C249.848 12.6143 250.504 12.9102 251.295 12.9102C252.08 12.9102 252.733 12.6113 253.255 12.0137C253.776 11.416 254.037 10.5049 254.037 9.28027C254.037 8.12598 253.773 7.25293 253.246 6.66113C252.725 6.06348 252.074 5.76465 251.295 5.76465C250.504 5.76465 249.848 6.06055 249.326 6.65234C248.805 7.24414 248.544 8.1377 248.544 9.33301ZM257.526 14V4.66602H258.95V5.99316C259.636 4.96777 260.626 4.45508 261.921 4.45508C262.483 4.45508 262.999 4.55762 263.468 4.7627C263.942 4.96191 264.297 5.22559 264.531 5.55371C264.766 5.88184 264.93 6.27148 265.023 6.72266C265.082 7.01562 265.111 7.52832 265.111 8.26074V14H263.529V8.32227C263.529 7.67773 263.468 7.19727 263.345 6.88086C263.222 6.55859 263.002 6.30371 262.686 6.11621C262.375 5.92285 262.009 5.82617 261.587 5.82617C260.913 5.82617 260.33 6.04004 259.838 6.46777C259.352 6.89551 259.108 7.70703 259.108 8.90234V14H257.526ZM273.936 10.9941L275.57 11.1963C275.312 12.1514 274.835 12.8926 274.138 13.4199C273.44 13.9473 272.55 14.2109 271.466 14.2109C270.101 14.2109 269.017 13.792 268.214 12.9541C267.417 12.1104 267.019 10.9297 267.019 9.41211C267.019 7.8418 267.423 6.62305 268.231 5.75586C269.04 4.88867 270.089 4.45508 271.378 4.45508C272.626 4.45508 273.646 4.87988 274.437 5.72949C275.228 6.5791 275.623 7.77441 275.623 9.31543C275.623 9.40918 275.62 9.5498 275.614 9.7373H268.653C268.712 10.7627 269.002 11.5479 269.523 12.0928C270.045 12.6377 270.695 12.9102 271.475 12.9102C272.055 12.9102 272.55 12.7578 272.96 12.4531C273.37 12.1484 273.695 11.6621 273.936 10.9941ZM268.741 8.43652H273.953C273.883 7.65137 273.684 7.0625 273.355 6.66992C272.852 6.06055 272.198 5.75586 271.396 5.75586C270.669 5.75586 270.057 5.99902 269.559 6.48535C269.066 6.97168 268.794 7.62207 268.741 8.43652ZM282.575 17.5771V4.66602H284.017V5.87891C284.356 5.4043 284.74 5.0498 285.168 4.81543C285.596 4.5752 286.114 4.45508 286.724 4.45508C287.521 4.45508 288.224 4.66016 288.833 5.07031C289.442 5.48047 289.902 6.06055 290.213 6.81055C290.523 7.55469 290.679 8.37207 290.679 9.2627C290.679 10.2178 290.506 11.0791 290.16 11.8467C289.82 12.6084 289.322 13.1943 288.666 13.6045C288.016 14.0088 287.33 14.2109 286.609 14.2109C286.082 14.2109 285.607 14.0996 285.186 13.877C284.77 13.6543 284.427 13.373 284.157 13.0332V17.5771H282.575ZM284.008 9.38574C284.008 10.5869 284.251 11.4746 284.737 12.0488C285.224 12.623 285.812 12.9102 286.504 12.9102C287.207 12.9102 287.808 12.6143 288.306 12.0225C288.81 11.4248 289.062 10.502 289.062 9.25391C289.062 8.06445 288.815 7.17383 288.323 6.58203C287.837 5.99023 287.254 5.69434 286.574 5.69434C285.9 5.69434 285.303 6.01074 284.781 6.64355C284.266 7.27051 284.008 8.18457 284.008 9.38574ZM292.56 14V1.11523H294.142V14H292.56ZM302.693 12.8486C302.107 13.3467 301.542 13.6982 300.997 13.9033C300.458 14.1084 299.878 14.2109 299.257 14.2109C298.231 14.2109 297.443 13.9619 296.893 13.4639C296.342 12.96 296.066 12.3184 296.066 11.5391C296.066 11.082 296.169 10.666 296.374 10.291C296.585 9.91016 296.857 9.60547 297.191 9.37695C297.531 9.14844 297.912 8.97559 298.334 8.8584C298.645 8.77637 299.113 8.69727 299.74 8.62109C301.018 8.46875 301.958 8.28711 302.562 8.07617C302.567 7.85938 302.57 7.72168 302.57 7.66309C302.57 7.01855 302.421 6.56445 302.122 6.30078C301.718 5.94336 301.117 5.76465 300.32 5.76465C299.576 5.76465 299.025 5.89648 298.668 6.16016C298.316 6.41797 298.056 6.87793 297.886 7.54004L296.339 7.3291C296.479 6.66699 296.711 6.13379 297.033 5.72949C297.355 5.31934 297.821 5.00586 298.431 4.78906C299.04 4.56641 299.746 4.45508 300.549 4.45508C301.346 4.45508 301.993 4.54883 302.491 4.73633C302.989 4.92383 303.355 5.16113 303.59 5.44824C303.824 5.72949 303.988 6.08691 304.082 6.52051C304.135 6.79004 304.161 7.27637 304.161 7.97949V10.0889C304.161 11.5596 304.193 12.4912 304.258 12.8838C304.328 13.2705 304.463 13.6426 304.662 14H303.01C302.846 13.6719 302.74 13.2881 302.693 12.8486ZM302.562 9.31543C301.987 9.5498 301.126 9.74902 299.978 9.91309C299.327 10.0068 298.867 10.1123 298.598 10.2295C298.328 10.3467 298.12 10.5195 297.974 10.748C297.827 10.9707 297.754 11.2197 297.754 11.4951C297.754 11.917 297.912 12.2686 298.229 12.5498C298.551 12.8311 299.02 12.9717 299.635 12.9717C300.244 12.9717 300.786 12.8398 301.261 12.5762C301.735 12.3066 302.084 11.9404 302.307 11.4775C302.477 11.1201 302.562 10.5928 302.562 9.89551V9.31543ZM312.713 10.5811L314.269 10.7832C314.099 11.8555 313.662 12.6963 312.959 13.3057C312.262 13.9092 311.403 14.2109 310.384 14.2109C309.106 14.2109 308.078 13.7949 307.299 12.9629C306.525 12.125 306.139 10.9268 306.139 9.36816C306.139 8.36035 306.306 7.47852 306.64 6.72266C306.974 5.9668 307.48 5.40137 308.16 5.02637C308.846 4.64551 309.59 4.45508 310.393 4.45508C311.406 4.45508 312.235 4.71289 312.88 5.22852C313.524 5.73828 313.938 6.46484 314.119 7.4082L312.581 7.64551C312.435 7.01855 312.174 6.54688 311.799 6.23047C311.43 5.91406 310.981 5.75586 310.454 5.75586C309.657 5.75586 309.01 6.04297 308.512 6.61719C308.014 7.18555 307.765 8.08789 307.765 9.32422C307.765 10.5781 308.005 11.4893 308.485 12.0576C308.966 12.626 309.593 12.9102 310.366 12.9102C310.987 12.9102 311.506 12.7197 311.922 12.3389C312.338 11.958 312.602 11.3721 312.713 10.5811ZM322.012 10.9941L323.646 11.1963C323.389 12.1514 322.911 12.8926 322.214 13.4199C321.517 13.9473 320.626 14.2109 319.542 14.2109C318.177 14.2109 317.093 13.792 316.29 12.9541C315.493 12.1104 315.095 10.9297 315.095 9.41211C315.095 7.8418 315.499 6.62305 316.308 5.75586C317.116 4.88867 318.165 4.45508 319.454 4.45508C320.702 4.45508 321.722 4.87988 322.513 5.72949C323.304 6.5791 323.699 7.77441 323.699 9.31543C323.699 9.40918 323.696 9.5498 323.69 9.7373H316.729C316.788 10.7627 317.078 11.5479 317.6 12.0928C318.121 12.6377 318.771 12.9102 319.551 12.9102C320.131 12.9102 320.626 12.7578 321.036 12.4531C321.446 12.1484 321.771 11.6621 322.012 10.9941ZM316.817 8.43652H322.029C321.959 7.65137 321.76 7.0625 321.432 6.66992C320.928 6.06055 320.274 5.75586 319.472 5.75586C318.745 5.75586 318.133 5.99902 317.635 6.48535C317.143 6.97168 316.87 7.62207 316.817 8.43652ZM332.374 14L329.518 4.66602H331.152L332.638 10.0537L333.191 12.0576C333.215 11.958 333.376 11.3164 333.675 10.1328L335.16 4.66602H336.786L338.184 10.0801L338.649 11.8643L339.186 10.0625L340.785 4.66602H342.323L339.405 14H337.762L336.276 8.41016L335.916 6.81934L334.026 14H332.374ZM343.668 2.93457V1.11523H345.25V2.93457H343.668ZM343.668 14V4.66602H345.25V14H343.668ZM351.121 12.585L351.35 13.9824C350.904 14.0762 350.506 14.123 350.154 14.123C349.58 14.123 349.135 14.0322 348.818 13.8506C348.502 13.6689 348.279 13.4316 348.15 13.1387C348.021 12.8398 347.957 12.2158 347.957 11.2666V5.89648H346.797V4.66602H347.957V2.35449L349.53 1.40527V4.66602H351.121V5.89648H349.53V11.3545C349.53 11.8057 349.557 12.0957 349.609 12.2246C349.668 12.3535 349.759 12.4561 349.882 12.5322C350.011 12.6084 350.192 12.6465 350.427 12.6465C350.603 12.6465 350.834 12.626 351.121 12.585ZM352.677 14V1.11523H354.259V5.73828C354.997 4.88281 355.929 4.45508 357.054 4.45508C357.745 4.45508 358.346 4.59277 358.855 4.86816C359.365 5.1377 359.729 5.5127 359.945 5.99316C360.168 6.47363 360.279 7.1709 360.279 8.08496V14H358.697V8.08496C358.697 7.29395 358.524 6.71973 358.179 6.3623C357.839 5.99902 357.355 5.81738 356.729 5.81738C356.26 5.81738 355.817 5.94043 355.401 6.18652C354.991 6.42676 354.698 6.75488 354.522 7.1709C354.347 7.58691 354.259 8.16113 354.259 8.89355V14H352.677ZM367.038 10.3438L368.576 10.1328C368.617 11.1172 368.802 11.791 369.13 12.1543C369.458 12.5176 369.912 12.6992 370.492 12.6992C370.92 12.6992 371.289 12.6025 371.6 12.4092C371.91 12.21 372.124 11.9434 372.241 11.6094C372.358 11.2695 372.417 10.7305 372.417 9.99219V1.11523H374.122V9.89551C374.122 10.9736 373.99 11.8086 373.727 12.4004C373.469 12.9922 373.056 13.4434 372.487 13.7539C371.925 14.0645 371.263 14.2197 370.501 14.2197C369.37 14.2197 368.503 13.8945 367.899 13.2441C367.302 12.5938 367.015 11.627 367.038 10.3438ZM376.908 14V1.11523H381.347C382.349 1.11523 383.113 1.17676 383.641 1.2998C384.379 1.46973 385.009 1.77734 385.53 2.22266C386.21 2.79688 386.717 3.53223 387.051 4.42871C387.391 5.31934 387.561 6.33887 387.561 7.4873C387.561 8.46582 387.446 9.33301 387.218 10.0889C386.989 10.8447 386.696 11.4717 386.339 11.9697C385.981 12.4619 385.589 12.8516 385.161 13.1387C384.739 13.4199 384.227 13.6338 383.623 13.7803C383.025 13.9268 382.337 14 381.558 14H376.908ZM378.613 12.4795H381.364C382.214 12.4795 382.879 12.4004 383.359 12.2422C383.846 12.084 384.232 11.8613 384.52 11.5742C384.924 11.1699 385.237 10.6279 385.46 9.94824C385.688 9.2627 385.803 8.43359 385.803 7.46094C385.803 6.11328 385.58 5.0791 385.135 4.3584C384.695 3.63184 384.159 3.14551 383.526 2.89941C383.069 2.72363 382.334 2.63574 381.32 2.63574H378.613V12.4795ZM400.955 8.94629V7.43457L406.413 7.42578V12.207C405.575 12.875 404.711 13.3789 403.82 13.7188C402.93 14.0527 402.016 14.2197 401.078 14.2197C399.812 14.2197 398.661 13.9502 397.624 13.4111C396.593 12.8662 395.813 12.0811 395.286 11.0557C394.759 10.0303 394.495 8.88477 394.495 7.61914C394.495 6.36523 394.756 5.19629 395.277 4.1123C395.805 3.02246 396.561 2.21387 397.545 1.68652C398.529 1.15918 399.663 0.895508 400.946 0.895508C401.878 0.895508 402.719 1.04785 403.469 1.35254C404.225 1.65137 404.816 2.07031 405.244 2.60938C405.672 3.14844 405.997 3.85156 406.22 4.71875L404.682 5.14062C404.488 4.48438 404.248 3.96875 403.961 3.59375C403.674 3.21875 403.264 2.91992 402.73 2.69727C402.197 2.46875 401.605 2.35449 400.955 2.35449C400.176 2.35449 399.502 2.47461 398.934 2.71484C398.365 2.94922 397.905 3.25977 397.554 3.64648C397.208 4.0332 396.938 4.45801 396.745 4.9209C396.417 5.71777 396.253 6.58203 396.253 7.51367C396.253 8.66211 396.449 9.62305 396.842 10.3965C397.24 11.1699 397.817 11.7441 398.573 12.1191C399.329 12.4941 400.132 12.6816 400.981 12.6816C401.72 12.6816 402.44 12.541 403.144 12.2598C403.847 11.9727 404.38 11.668 404.743 11.3457V8.94629H400.955ZM408.716 14V4.66602H410.14V6.08105C410.503 5.41895 410.837 4.98242 411.142 4.77148C411.452 4.56055 411.792 4.45508 412.161 4.45508C412.694 4.45508 413.236 4.625 413.787 4.96484L413.242 6.43262C412.855 6.2041 412.469 6.08984 412.082 6.08984C411.736 6.08984 411.426 6.19531 411.15 6.40625C410.875 6.61133 410.679 6.89844 410.562 7.26758C410.386 7.83008 410.298 8.44531 410.298 9.11328V14H408.716ZM414.139 9.33301C414.139 7.60449 414.619 6.32422 415.58 5.49219C416.383 4.80078 417.361 4.45508 418.516 4.45508C419.799 4.45508 420.848 4.87695 421.662 5.7207C422.477 6.55859 422.884 7.71875 422.884 9.20117C422.884 10.4023 422.702 11.3486 422.339 12.04C421.981 12.7256 421.457 13.2588 420.766 13.6396C420.08 14.0205 419.33 14.2109 418.516 14.2109C417.209 14.2109 416.151 13.792 415.343 12.9541C414.54 12.1162 414.139 10.9092 414.139 9.33301ZM415.765 9.33301C415.765 10.5283 416.025 11.4248 416.547 12.0225C417.068 12.6143 417.725 12.9102 418.516 12.9102C419.301 12.9102 419.954 12.6113 420.476 12.0137C420.997 11.416 421.258 10.5049 421.258 9.28027C421.258 8.12598 420.994 7.25293 420.467 6.66113C419.945 6.06348 419.295 5.76465 418.516 5.76465C417.725 5.76465 417.068 6.06055 416.547 6.65234C416.025 7.24414 415.765 8.1377 415.765 9.33301ZM430.864 14V12.6289C430.138 13.6836 429.15 14.2109 427.902 14.2109C427.352 14.2109 426.836 14.1055 426.355 13.8945C425.881 13.6836 425.526 13.4199 425.292 13.1035C425.063 12.7812 424.902 12.3887 424.809 11.9258C424.744 11.6152 424.712 11.123 424.712 10.4492V4.66602H426.294V9.84277C426.294 10.6689 426.326 11.2256 426.391 11.5127C426.49 11.9287 426.701 12.2568 427.023 12.4971C427.346 12.7314 427.744 12.8486 428.219 12.8486C428.693 12.8486 429.139 12.7285 429.555 12.4883C429.971 12.2422 430.264 11.9111 430.434 11.4951C430.609 11.0732 430.697 10.4639 430.697 9.66699V4.66602H432.279V14H430.864ZM434.767 17.5771V4.66602H436.208V5.87891C436.548 5.4043 436.932 5.0498 437.359 4.81543C437.787 4.5752 438.306 4.45508 438.915 4.45508C439.712 4.45508 440.415 4.66016 441.024 5.07031C441.634 5.48047 442.094 6.06055 442.404 6.81055C442.715 7.55469 442.87 8.37207 442.87 9.2627C442.87 10.2178 442.697 11.0791 442.352 11.8467C442.012 12.6084 441.514 13.1943 440.857 13.6045C440.207 14.0088 439.521 14.2109 438.801 14.2109C438.273 14.2109 437.799 14.0996 437.377 13.877C436.961 13.6543 436.618 13.373 436.349 13.0332V17.5771H434.767ZM436.199 9.38574C436.199 10.5869 436.442 11.4746 436.929 12.0488C437.415 12.623 438.004 12.9102 438.695 12.9102C439.398 12.9102 439.999 12.6143 440.497 12.0225C441.001 11.4248 441.253 10.502 441.253 9.25391C441.253 8.06445 441.007 7.17383 440.515 6.58203C440.028 5.99023 439.445 5.69434 438.766 5.69434C438.092 5.69434 437.494 6.01074 436.973 6.64355C436.457 7.27051 436.199 8.18457 436.199 9.38574ZM447.897 8.27832V2.17871H445.577V1.11523H451.431V2.17871H449.093V8.27832H447.897ZM452.23 8.27832V1.11523H453.988L455.799 6.83691L457.548 1.11523H459.271V8.27832H458.181V2.2666L456.335 8.27832H455.254L453.329 2.17871V8.27832H452.23Z" fill="#2C3237"/>
</svg>
